<svg width="60" height="60" viewBox="0 0 60 60" fill="none" xmlns="http://www.w3.org/2000/svg">
<rect width="60" height="60" rx="8" fill="#3FB480"/>
<path d="M8 12C8 9.79086 9.79086 8 12 8H24.6667C26.5076 8 28 9.49238 28 11.3333V11.3333C28 20.5381 20.5381 28 11.3333 28V28C9.49238 28 8 26.5076 8 24.6667V12Z" fill="#333333"/>
<path d="M32 12C32 9.79086 33.7909 8 36 8H48C50.2091 8 52 9.79086 52 12V24C52 26.2091 50.2091 28 48 28H36C33.7909 28 32 26.2091 32 24V12Z" fill="#333333"/>
<path d="M8 35.3333C8 33.4924 9.49238 32 11.3333 32V32C20.5381 32 28 39.4619 28 48.6667V48.6667C28 50.5076 26.5076 52 24.6667 52H12C9.79086 52 8 50.2091 8 48V35.3333Z" fill="#333333"/>
<path d="M32 36C32 33.7909 33.7909 32 36 32H48C50.2091 32 52 33.7909 52 36V48C52 50.2091 50.2091 52 48 52H36C33.7909 52 32 50.2091 32 48V36Z" fill="#333333"/>
</svg>
