<svg width="60" height="60" viewBox="0 0 60 60" fill="none" xmlns="http://www.w3.org/2000/svg">
<path d="M8 12C8 9.79086 9.79086 8 12 8H24.6667C26.5076 8 28 9.49238 28 11.3333V11.3333C28 20.5381 20.5381 28 11.3333 28V28C9.49238 28 8 26.5076 8 24.6667V12Z" fill="#333333"/>
<path d="M36 28C33.7909 28 32 26.2091 32 24L32 11.3333C32 9.49238 33.4924 8 35.3333 8V8C44.5381 8 52 15.4619 52 24.6667V24.6667C52 26.5076 50.5076 28 48.6667 28L36 28Z" fill="#333333"/>
<path d="M32 36C32 33.7909 33.7909 32 36 32H48C50.2091 32 52 33.7909 52 36V48C52 50.2091 50.2091 52 48 52H36C33.7909 52 32 50.2091 32 48V36Z" fill="#333333"/>
</svg>
